<svg xmlns="http://www.w3.org/2000/svg" style="display: none;">

  <!-- Wifi Icon (for Fibre Internet) -->
  <symbol id="icon-wifi" viewBox="0 0 24 24" fill="none" stroke="currentColor" stroke-width="2" stroke-linecap="round" stroke-linejoin="round">
    <path d="M12 20h.01"/>
    <path d="M2 8.82a15 15 0 0 1 20 0"/>
    <path d="M5 12.859a10 10 0 0 1 14 0"/>
    <path d="M8.5 16.429a5 5 0 0 1 7 0"/>
  </symbol>

  <!-- Radio Icon (for LTE) -->
  <symbol id="icon-radio" viewBox="0 0 24 24" fill="none" stroke="currentColor" stroke-width="2" stroke-linecap="round" stroke-linejoin="round">
    <path d="M4.9 19.1C1 15.2 1 8.8 4.9 4.9"/>
    <path d="M7.8 16.2c-2.3-2.3-2.3-6.1 0-8.5"/>
    <circle cx="12" cy="12" r="2"/>
    <path d="M16.2 7.8c2.3 2.3 2.3 6.1 0 8.5"/>
    <path d="M19.1 4.9C23 8.8 23 15.1 19.1 19"/>
  </symbol>

  <!-- Check Icon -->
  <symbol id="icon-check" viewBox="0 0 24 24" fill="none" stroke="currentColor" stroke-width="2" stroke-linecap="round" stroke-linejoin="round">
    <path d="M20 6 9 17l-5-5"/>
  </symbol>

  <!-- Sparkles Icon (for promo) -->
  <symbol id="icon-sparkles" viewBox="0 0 24 24" fill="none" stroke="currentColor" stroke-width="2" stroke-linecap="round" stroke-linejoin="round">
    <path d="m12 3-1.912 5.813a2 2 0 0 1-1.275 1.275L3 12l5.813 1.912a2 2 0 0 1 1.275 1.275L12 21l1.912-5.813a2 2 0 0 1 1.275-1.275L21 12l-5.813-1.912a2 2 0 0 1-1.275-1.275L12 3Z"/>
    <path d="M5 3v4"/>
    <path d="M19 17v4"/>
    <path d="M3 5h4"/>
    <path d="M17 19h4"/>
  </symbol>

  <!-- Wrench Icon (for technical services) -->
  <symbol id="icon-wrench" viewBox="0 0 24 24" fill="none" stroke="currentColor" stroke-width="2" stroke-linecap="round" stroke-linejoin="round">
    <path d="M14.7 6.3a1 1 0 0 0 0 1.4l1.6 1.6a1 1 0 0 0 1.4 0l3.77-3.77a6 6 0 0 1-7.94 7.94l-6.91 6.91a2.12 2.12 0 0 1-3-3l6.91-6.91a6 6 0 0 1 7.94-7.94l-3.76 3.76z"/>
  </symbol>

</svg>
